%TF.GenerationSoftware,Altium Limited,Altium Designer,21.4.1 (30)*%
G04 Layer_Color=255*
%FSLAX26Y26*%
%MOIN*%
%TF.SameCoordinates,1ED331C9-AAA6-4E36-89CA-E609260C48EE*%
%TF.FilePolarity,Positive*%
%TF.FileFunction,Pads,Bot*%
%TF.Part,Single*%
G01*
G75*
%TA.AperFunction,WasherPad*%
%ADD30C,0.045354*%
%TA.AperFunction,ComponentPad*%
%ADD31R,0.059055X0.059055*%
%ADD32C,0.059055*%
%ADD33C,0.070866*%
%ADD34R,0.070866X0.070866*%
%ADD35O,0.074803X0.047244*%
%ADD36C,0.057087*%
%ADD37R,0.059055X0.059055*%
D30*
X2580709Y307087D02*
D03*
X807087Y2066929D02*
D03*
D31*
X783465Y847244D02*
D03*
X780000Y675000D02*
D03*
D32*
X783465Y947244D02*
D03*
Y1047244D02*
D03*
Y1147244D02*
D03*
Y1247244D02*
D03*
Y1347244D02*
D03*
X780000Y575000D02*
D03*
X2488347Y568582D02*
D03*
X2388347D02*
D03*
X2288347D02*
D03*
X2188347D02*
D03*
X2088347D02*
D03*
D33*
X2401929Y1238543D02*
D03*
X2456693Y1106299D02*
D03*
X2401929Y974055D02*
D03*
X2137441D02*
D03*
X2082677Y1106299D02*
D03*
D34*
X2137441Y1238543D02*
D03*
D35*
X774685Y161614D02*
D03*
Y437205D02*
D03*
D36*
X880984Y200984D02*
D03*
Y397835D02*
D03*
D37*
X2588347Y568582D02*
D03*
%TF.MD5,72db496089149b17641556df0e23455d*%
M02*
