%TF.GenerationSoftware,Altium Limited,Altium Designer,21.4.1 (30)*%
G04 Layer_Physical_Order=4*
G04 Layer_Color=16711680*
%FSLAX26Y26*%
%MOIN*%
%TF.SameCoordinates,1ED331C9-AAA6-4E36-89CA-E609260C48EE*%
%TF.FilePolarity,Positive*%
%TF.FileFunction,Copper,L4,Bot,Signal*%
%TF.Part,Single*%
G01*
G75*
%TA.AperFunction,Conductor*%
%ADD26C,0.011811*%
%ADD27C,0.029528*%
%TA.AperFunction,WasherPad*%
%ADD30C,0.045354*%
%TA.AperFunction,ComponentPad*%
%ADD31R,0.059055X0.059055*%
%ADD32C,0.059055*%
%ADD33C,0.070866*%
%ADD34R,0.070866X0.070866*%
%ADD35O,0.074803X0.047244*%
%ADD36C,0.057087*%
%ADD37R,0.059055X0.059055*%
%TA.AperFunction,ViaPad*%
%ADD38C,0.031496*%
%ADD39C,0.118110*%
%ADD40C,0.023622*%
G36*
X812047Y156654D02*
X811968Y155630D01*
X811850Y154606D01*
X811654Y153583D01*
X811417Y152598D01*
X811142Y151575D01*
X810787Y150630D01*
X810394Y149685D01*
X809961Y148740D01*
X809449Y147835D01*
X808898Y146969D01*
X808346Y146102D01*
X807716Y145275D01*
X807047Y144488D01*
X806339Y143740D01*
X805591Y143031D01*
X804803Y142362D01*
X803976Y141732D01*
X803110Y141181D01*
X802244Y140630D01*
X801339Y140118D01*
X800394Y139685D01*
X799449Y139291D01*
X798504Y138937D01*
X797480Y138661D01*
X796496Y138425D01*
X795472Y138228D01*
X794449Y138110D01*
X793425Y138031D01*
X792402Y137992D01*
X756968D01*
X755945Y138031D01*
X754921Y138110D01*
X753898Y138228D01*
X752874Y138425D01*
X751890Y138661D01*
X750866Y138937D01*
X749921Y139291D01*
X748976Y139685D01*
X748032Y140118D01*
X747126Y140630D01*
X746260Y141181D01*
X745394Y141732D01*
X744567Y142362D01*
X743779Y143031D01*
X743032Y143740D01*
X742323Y144488D01*
X741654Y145275D01*
X741024Y146102D01*
X740472Y146969D01*
X739921Y147835D01*
X739409Y148740D01*
X738976Y149685D01*
X738583Y150630D01*
X738228Y151575D01*
X737953Y152598D01*
X737716Y153583D01*
X737520Y154606D01*
X737402Y155630D01*
X737323Y156654D01*
X737283Y157677D01*
Y208858D01*
X812087D01*
Y157677D01*
X812047Y156654D01*
D02*
G37*
G36*
X737283Y389961D02*
Y441142D01*
X737323Y442165D01*
X737402Y443189D01*
X737520Y444212D01*
X737716Y445236D01*
X737953Y446220D01*
X738228Y447244D01*
X738583Y448189D01*
X738976Y449134D01*
X739409Y450079D01*
X739921Y450984D01*
X740472Y451850D01*
X741024Y452716D01*
X741654Y453543D01*
X742323Y454331D01*
X743032Y455079D01*
X743779Y455787D01*
X744567Y456457D01*
X745394Y457087D01*
X746260Y457638D01*
X747126Y458189D01*
X748032Y458701D01*
X748976Y459134D01*
X749921Y459527D01*
X750866Y459882D01*
X751890Y460157D01*
X752874Y460394D01*
X753898Y460591D01*
X754921Y460709D01*
X755945Y460787D01*
X756968Y460827D01*
X792402D01*
X793425Y460787D01*
X794449Y460709D01*
X795472Y460591D01*
X796496Y460394D01*
X797480Y460157D01*
X798504Y459882D01*
X799449Y459527D01*
X800394Y459134D01*
X801339Y458701D01*
X802244Y458189D01*
X803110Y457638D01*
X803976Y457087D01*
X804803Y456457D01*
X805591Y455787D01*
X806339Y455079D01*
X807047Y454331D01*
X807716Y453543D01*
X808346Y452716D01*
X808898Y451850D01*
X809449Y450984D01*
X809961Y450079D01*
X810394Y449134D01*
X810787Y448189D01*
X811142Y447244D01*
X811417Y446220D01*
X811654Y445236D01*
X811850Y444212D01*
X811968Y443189D01*
X812047Y442165D01*
X812087Y441142D01*
Y389961D01*
X737283D01*
D02*
G37*
D26*
X1843265Y1723665D02*
X2212598Y1354331D01*
Y644331D02*
X2288347Y568582D01*
X2212598Y644331D02*
Y1354331D01*
X1673918Y1723665D02*
X1843265D01*
X1673228Y1874016D02*
X1809055D01*
X2307087Y1375984D01*
Y649842D02*
Y1375984D01*
Y649842D02*
X2388347Y568582D01*
X885827Y1291339D02*
Y1393701D01*
X1354331Y968504D02*
X1551181D01*
X1586614Y1082677D02*
X1755906Y1251968D01*
X915748Y947244D02*
X1051181Y1082677D01*
X1586614D01*
X783465Y1047244D02*
X858268D01*
X948819Y1137795D01*
X1531496D01*
X1696850Y1303150D01*
Y1417323D01*
X1531496Y1582677D02*
X1696850Y1417323D01*
X1531496Y1582677D02*
Y1744094D01*
X783465Y947244D02*
X915748D01*
X1755906Y1251968D02*
Y1429134D01*
X1594488Y1590551D02*
X1755906Y1429134D01*
X1594488Y1590551D02*
Y1744094D01*
X1622047Y1771653D01*
X1673228D01*
X1531496Y1744094D02*
X1610236Y1822835D01*
X1673228D01*
X1534646Y1247244D02*
X1645669Y1358268D01*
X783465Y1247244D02*
X1534646D01*
D27*
X2248032Y1818898D02*
Y1933071D01*
X2414440Y1652489D02*
X2422314D01*
X2588347Y1486457D01*
X2248032Y1818898D02*
X2414440Y1652489D01*
X2588347Y568582D02*
Y1486457D01*
X1251968Y744095D02*
X2011811D01*
X2192913Y1988189D02*
X2248032Y1933071D01*
X1838583Y1988189D02*
X2192913D01*
X2137441Y869724D02*
Y974055D01*
X2011811Y744095D02*
X2137441Y869724D01*
X1196850Y688976D02*
X1251968Y744095D01*
D30*
X2580709Y307087D02*
D03*
X807087Y2066929D02*
D03*
D31*
X783465Y847244D02*
D03*
X780000Y675000D02*
D03*
D32*
X783465Y947244D02*
D03*
Y1047244D02*
D03*
Y1147244D02*
D03*
Y1247244D02*
D03*
Y1347244D02*
D03*
X780000Y575000D02*
D03*
X2488347Y568582D02*
D03*
X2388347D02*
D03*
X2288347D02*
D03*
X2188347D02*
D03*
X2088347D02*
D03*
D33*
X2401929Y1238543D02*
D03*
X2456693Y1106299D02*
D03*
X2401929Y974055D02*
D03*
X2137441D02*
D03*
X2082677Y1106299D02*
D03*
D34*
X2137441Y1238543D02*
D03*
D35*
X774685Y161614D02*
D03*
Y437205D02*
D03*
D36*
X880984Y200984D02*
D03*
Y397835D02*
D03*
D37*
X2588347Y568582D02*
D03*
D38*
X2629389Y1795276D02*
D03*
X2627420Y1966535D02*
D03*
Y2143701D02*
D03*
X2209512Y1614561D02*
D03*
X1893168Y1870079D02*
D03*
X1836082Y2167323D02*
D03*
X890994Y2093458D02*
D03*
X795236Y1993537D02*
D03*
X1013247Y2171260D02*
D03*
X999467Y2238189D02*
D03*
X932538Y2190945D02*
D03*
X920727Y2005906D02*
D03*
X1280272Y912096D02*
D03*
X1021121Y814961D02*
D03*
X1133326Y842520D02*
D03*
X1180570Y909449D02*
D03*
X1064428Y907480D02*
D03*
X2241593Y338583D02*
D03*
X2242963Y204206D02*
D03*
X2497348Y331868D02*
D03*
X2547099Y200451D02*
D03*
X2393168Y198819D02*
D03*
X2341526Y329990D02*
D03*
X2121515Y208661D02*
D03*
X2486084Y470794D02*
D03*
X2413805Y468916D02*
D03*
X2271121Y468504D02*
D03*
X2125627Y481119D02*
D03*
X2131890Y328740D02*
D03*
X1439445Y194819D02*
D03*
X1156948Y212598D02*
D03*
X1078207Y157480D02*
D03*
X1225845Y151575D02*
D03*
X1359656Y145069D02*
D03*
X1520172Y157272D02*
D03*
X1976375Y174168D02*
D03*
X1868426Y205145D02*
D03*
X1640324Y237060D02*
D03*
X1721908Y192913D02*
D03*
X1825246Y289627D02*
D03*
X1932256Y304646D02*
D03*
X1736070Y314972D02*
D03*
X1912853Y618110D02*
D03*
X1776434Y898836D02*
D03*
X1668759Y826772D02*
D03*
X1635631Y893204D02*
D03*
X1512662Y830312D02*
D03*
X1651042Y616142D02*
D03*
X1517716Y681102D02*
D03*
X1922696Y460630D02*
D03*
X2649074Y1057087D02*
D03*
X2653011Y1192913D02*
D03*
X2647538Y1375690D02*
D03*
X2521121Y996063D02*
D03*
X2519152Y1348425D02*
D03*
X2521121Y1250000D02*
D03*
X2530202Y1428256D02*
D03*
X2328207Y1468504D02*
D03*
X2391200Y1387795D02*
D03*
X2019152Y990158D02*
D03*
X1952908Y1048087D02*
D03*
X1944349Y1161417D02*
D03*
X2044743Y1232284D02*
D03*
X1962066Y1297244D02*
D03*
X2048680Y1429134D02*
D03*
X1954192Y1437008D02*
D03*
X2471908Y1907480D02*
D03*
X2639231Y1627953D02*
D03*
X2633326Y1722441D02*
D03*
X2624071Y1889153D02*
D03*
X2627953Y2059055D02*
D03*
X2351829Y2110236D02*
D03*
X2408916Y1984252D02*
D03*
X2294743Y2047244D02*
D03*
X2186475Y2096457D02*
D03*
X1906948Y2230315D02*
D03*
X1826772Y2238189D02*
D03*
X1660885Y1629921D02*
D03*
X1426633Y1383858D02*
D03*
X1590018Y1940945D02*
D03*
X1505373Y1846457D02*
D03*
X1452223Y1938976D02*
D03*
X1351209Y1862869D02*
D03*
X1280963Y1937008D02*
D03*
X1198286Y1830709D02*
D03*
X1210097Y1675197D02*
D03*
X1513247Y1419291D02*
D03*
X1420727Y1503937D02*
D03*
X1328207Y1431102D02*
D03*
X1214034Y1498032D02*
D03*
X2248032Y1818898D02*
D03*
X1897638Y2110236D02*
D03*
X2039370Y1763780D02*
D03*
Y1807087D02*
D03*
X2460630Y1767716D02*
D03*
Y1811024D02*
D03*
X2456693Y2094488D02*
D03*
Y2137795D02*
D03*
X2047244Y2086614D02*
D03*
Y2133858D02*
D03*
X2160845Y1825113D02*
D03*
X1838583Y1988189D02*
D03*
X1196850Y688976D02*
D03*
X1346457Y811024D02*
D03*
X1350394Y677165D02*
D03*
X2342520Y1566929D02*
D03*
X1811024Y976378D02*
D03*
X1740158D02*
D03*
X838583Y1523622D02*
D03*
X1551181Y1035433D02*
D03*
X1602362D02*
D03*
X759843Y1763780D02*
D03*
Y1685039D02*
D03*
Y1846457D02*
D03*
X1157480Y1972441D02*
D03*
X1192913Y1358268D02*
D03*
X1330709Y1181102D02*
D03*
X759843Y1921260D02*
D03*
X1673228Y1972441D02*
D03*
X945000Y250000D02*
D03*
X1550000Y600000D02*
D03*
X1185000Y400000D02*
D03*
X1550000Y275000D02*
D03*
X1495000Y590000D02*
D03*
D39*
X809055Y2183071D02*
D03*
X1799213Y561024D02*
D03*
D40*
X885827Y1393701D02*
D03*
Y1291339D02*
D03*
X1354331Y968504D02*
D03*
X1551181D02*
D03*
X1673228Y1771653D02*
D03*
Y1822835D02*
D03*
X1645669Y1358268D02*
D03*
X1673918Y1723665D02*
D03*
X1673228Y1874016D02*
D03*
X1303150Y1641732D02*
D03*
X1338583Y1751968D02*
D03*
X1377953Y1641732D02*
D03*
X1413386Y1606299D02*
D03*
X1338583D02*
D03*
X1413386Y1677165D02*
D03*
X1338583D02*
D03*
X1303150Y1712598D02*
D03*
X1377953D02*
D03*
X1409449Y1751968D02*
D03*
X1448416Y1714457D02*
D03*
X1448819Y1641732D02*
D03*
%TF.MD5,39f97c43d31ddea79cd896de24035425*%
M02*
