%TF.GenerationSoftware,Altium Limited,Altium Designer,21.4.1 (30)*%
G04 Layer_Color=0*
%FSLAX26Y26*%
%MOIN*%
%TF.SameCoordinates,1ED331C9-AAA6-4E36-89CA-E609260C48EE*%
%TF.FilePolarity,Positive*%
%TF.FileFunction,Plated,1,4,PTH,Drill*%
%TF.Part,Single*%
G01*
G75*
%TA.AperFunction,ComponentDrill*%
%ADD75C,0.035433*%
%ADD76C,0.047244*%
%ADD77O,0.051181X0.023622*%
%ADD78C,0.033465*%
%ADD79C,0.035433*%
%TA.AperFunction,ViaDrill,NotFilled*%
%ADD80C,0.015748*%
%ADD81C,0.118110*%
%ADD82C,0.011811*%
D75*
X783465Y847244D02*
D03*
Y947244D02*
D03*
Y1047244D02*
D03*
Y1147244D02*
D03*
Y1247244D02*
D03*
Y1347244D02*
D03*
X780000Y575000D02*
D03*
Y675000D02*
D03*
D76*
X2401929Y1238543D02*
D03*
X2456693Y1106299D02*
D03*
X2401929Y974055D02*
D03*
X2137441D02*
D03*
X2082677Y1106299D02*
D03*
X2137441Y1238543D02*
D03*
D77*
X774685Y161614D02*
D03*
Y437205D02*
D03*
D78*
X880984Y200984D02*
D03*
Y397835D02*
D03*
D79*
X2488347Y568582D02*
D03*
X2588347D02*
D03*
X2388347D02*
D03*
X2288347D02*
D03*
X2188347D02*
D03*
X2088347D02*
D03*
D80*
X2629389Y1795276D02*
D03*
X2627420Y1966535D02*
D03*
Y2143701D02*
D03*
X2209512Y1614561D02*
D03*
X1893168Y1870079D02*
D03*
X1836082Y2167323D02*
D03*
X890994Y2093458D02*
D03*
X795236Y1993537D02*
D03*
X1013247Y2171260D02*
D03*
X999467Y2238189D02*
D03*
X932538Y2190945D02*
D03*
X920727Y2005906D02*
D03*
X1280272Y912096D02*
D03*
X1021121Y814961D02*
D03*
X1133326Y842520D02*
D03*
X1180570Y909449D02*
D03*
X1064428Y907480D02*
D03*
X2241593Y338583D02*
D03*
X2242963Y204206D02*
D03*
X2497348Y331868D02*
D03*
X2547099Y200451D02*
D03*
X2393168Y198819D02*
D03*
X2341526Y329990D02*
D03*
X2121515Y208661D02*
D03*
X2486084Y470794D02*
D03*
X2413805Y468916D02*
D03*
X2271121Y468504D02*
D03*
X2125627Y481119D02*
D03*
X2131890Y328740D02*
D03*
X1439445Y194819D02*
D03*
X1156948Y212598D02*
D03*
X1078207Y157480D02*
D03*
X1225845Y151575D02*
D03*
X1359656Y145069D02*
D03*
X1520172Y157272D02*
D03*
X1976375Y174168D02*
D03*
X1868426Y205145D02*
D03*
X1640324Y237060D02*
D03*
X1721908Y192913D02*
D03*
X1825246Y289627D02*
D03*
X1932256Y304646D02*
D03*
X1736070Y314972D02*
D03*
X1912853Y618110D02*
D03*
X1776434Y898836D02*
D03*
X1668759Y826772D02*
D03*
X1635631Y893204D02*
D03*
X1512662Y830312D02*
D03*
X1651042Y616142D02*
D03*
X1517716Y681102D02*
D03*
X1922696Y460630D02*
D03*
X2649074Y1057087D02*
D03*
X2653011Y1192913D02*
D03*
X2647538Y1375690D02*
D03*
X2521121Y996063D02*
D03*
X2519152Y1348425D02*
D03*
X2521121Y1250000D02*
D03*
X2530202Y1428256D02*
D03*
X2328207Y1468504D02*
D03*
X2391200Y1387795D02*
D03*
X2019152Y990158D02*
D03*
X1952908Y1048087D02*
D03*
X1944349Y1161417D02*
D03*
X2044743Y1232284D02*
D03*
X1962066Y1297244D02*
D03*
X2048680Y1429134D02*
D03*
X1954192Y1437008D02*
D03*
X2471908Y1907480D02*
D03*
X2639231Y1627953D02*
D03*
X2633326Y1722441D02*
D03*
X2624071Y1889153D02*
D03*
X2627953Y2059055D02*
D03*
X2351829Y2110236D02*
D03*
X2408916Y1984252D02*
D03*
X2294743Y2047244D02*
D03*
X2186475Y2096457D02*
D03*
X1906948Y2230315D02*
D03*
X1826772Y2238189D02*
D03*
X1660885Y1629921D02*
D03*
X1426633Y1383858D02*
D03*
X1590018Y1940945D02*
D03*
X1505373Y1846457D02*
D03*
X1452223Y1938976D02*
D03*
X1351209Y1862869D02*
D03*
X1280963Y1937008D02*
D03*
X1198286Y1830709D02*
D03*
X1210097Y1675197D02*
D03*
X1513247Y1419291D02*
D03*
X1420727Y1503937D02*
D03*
X1328207Y1431102D02*
D03*
X1214034Y1498032D02*
D03*
X2248032Y1818898D02*
D03*
X1897638Y2110236D02*
D03*
X2039370Y1763780D02*
D03*
Y1807087D02*
D03*
X2460630Y1767716D02*
D03*
Y1811024D02*
D03*
X2456693Y2094488D02*
D03*
Y2137795D02*
D03*
X2047244Y2086614D02*
D03*
Y2133858D02*
D03*
X2160845Y1825113D02*
D03*
X1838583Y1988189D02*
D03*
X1196850Y688976D02*
D03*
X1346457Y811024D02*
D03*
X1350394Y677165D02*
D03*
X2342520Y1566929D02*
D03*
X1811024Y976378D02*
D03*
X1740158D02*
D03*
X838583Y1523622D02*
D03*
X1551181Y1035433D02*
D03*
X1602362D02*
D03*
X759843Y1763780D02*
D03*
Y1685039D02*
D03*
Y1846457D02*
D03*
X1157480Y1972441D02*
D03*
X1192913Y1358268D02*
D03*
X1330709Y1181102D02*
D03*
X759843Y1921260D02*
D03*
X1673228Y1972441D02*
D03*
X945000Y250000D02*
D03*
X1550000Y600000D02*
D03*
X1185000Y400000D02*
D03*
X1550000Y275000D02*
D03*
X1495000Y590000D02*
D03*
D81*
X809055Y2183071D02*
D03*
X1799213Y561024D02*
D03*
D82*
X885827Y1393701D02*
D03*
Y1291339D02*
D03*
X1354331Y968504D02*
D03*
X1551181D02*
D03*
X1673228Y1771653D02*
D03*
Y1822835D02*
D03*
X1645669Y1358268D02*
D03*
X1673918Y1723665D02*
D03*
X1673228Y1874016D02*
D03*
X1303150Y1641732D02*
D03*
X1338583Y1751968D02*
D03*
X1377953Y1641732D02*
D03*
X1413386Y1606299D02*
D03*
X1338583D02*
D03*
X1413386Y1677165D02*
D03*
X1338583D02*
D03*
X1303150Y1712598D02*
D03*
X1377953D02*
D03*
X1409449Y1751968D02*
D03*
X1448416Y1714457D02*
D03*
X1448819Y1641732D02*
D03*
%TF.MD5,25ac13f657c4ecab0f847e9bc7ed36f7*%
M02*
