%TF.GenerationSoftware,Altium Limited,Altium Designer,21.4.1 (30)*%
G04 Layer_Color=65535*
%FSLAX26Y26*%
%MOIN*%
%TF.SameCoordinates,1ED331C9-AAA6-4E36-89CA-E609260C48EE*%
%TF.FilePolarity,Positive*%
%TF.FileFunction,Legend,Top*%
%TF.Part,Single*%
G01*
G75*
%TA.AperFunction,NonConductor*%
%ADD51C,0.007874*%
%ADD52C,0.005000*%
%ADD53C,0.006000*%
%ADD54C,0.005906*%
%ADD55C,0.010000*%
%ADD56C,0.007000*%
D51*
X1464094Y598543D02*
G03*
X1464094Y598543I-3937J0D01*
G01*
X1025709Y1972716D02*
G03*
X1025709Y1972716I-3937J0D01*
G01*
X1564764Y503031D02*
Y506969D01*
X1535236Y503031D02*
Y506969D01*
Y363031D02*
Y366969D01*
X1564764Y363031D02*
Y366969D01*
X1796260Y1068898D02*
Y1072835D01*
X1825787Y1068898D02*
Y1072835D01*
X1726378Y1068898D02*
Y1072835D01*
X1753937Y1068898D02*
Y1072835D01*
X2427165Y1580709D02*
X2431102D01*
X2427165Y1553149D02*
X2431102D01*
X733465Y1397244D02*
X833465D01*
X733465Y797244D02*
X833465D01*
X733465D02*
Y1397244D01*
X833465Y797244D02*
Y1397244D01*
X847126Y1939842D02*
X851063D01*
X847126Y1910315D02*
X851063D01*
X847126Y1779842D02*
X851063D01*
X847126Y1750315D02*
X851063D01*
X847126Y1859842D02*
X851063D01*
X847126Y1830315D02*
X851063D01*
X847126Y1699842D02*
X851063D01*
X847126Y1670315D02*
X851063D01*
X1505906Y1001968D02*
Y1005905D01*
X1478346Y1001968D02*
Y1005905D01*
X918307Y1584646D02*
X922244D01*
X918307Y1612205D02*
X922244D01*
X918307Y1538189D02*
X922244D01*
X918307Y1508661D02*
X922244D01*
X1415354Y1162401D02*
X1419292D01*
X1415354Y1191929D02*
X1419292D01*
X830000Y525000D02*
Y725000D01*
X730000D02*
X830000D01*
X730000Y525000D02*
Y725000D01*
Y525000D02*
X830000D01*
X897638Y724213D02*
X1102362D01*
X897638Y625787D02*
X1116142D01*
X1025787Y337638D02*
Y542362D01*
X1124213Y337638D02*
Y556142D01*
X1171220Y488031D02*
Y491969D01*
X1198780Y488031D02*
Y491969D01*
X1313032Y605236D02*
X1316968D01*
X1313032Y634764D02*
X1316968D01*
X1313032Y735236D02*
X1316968D01*
X1313032Y764764D02*
X1316968D01*
X1882874Y2021653D02*
Y2025591D01*
X1912402Y2021653D02*
Y2025591D01*
X2038347Y518582D02*
Y618582D01*
X2638347Y518582D02*
Y618582D01*
X2038347Y518582D02*
X2638347D01*
X2038347Y618582D02*
X2638347D01*
D52*
X1241949Y470689D02*
X1498051D01*
X1241949Y332697D02*
Y470689D01*
Y332697D02*
X1498051D01*
Y470689D01*
X1061142Y1264055D02*
Y1289646D01*
Y1264055D02*
X1157599D01*
X1673347D02*
X1769803D01*
Y1289646D01*
X1061142Y2012087D02*
Y2267992D01*
X1769803D01*
Y2012087D02*
Y2267992D01*
X1984252Y1687008D02*
X2519685D01*
X1984252Y2257874D02*
X2519685D01*
X1984252Y2161417D02*
Y2255905D01*
X2519685Y2161417D02*
Y2255905D01*
X2015748Y1688976D02*
Y1716535D01*
X2488189Y1688976D02*
Y1716535D01*
X2015748D02*
X2082677Y1755906D01*
X2177166Y1779527D01*
X2314961D01*
X2417323Y1755906D01*
X2488189Y1716535D01*
X1984252Y2161417D02*
X2519685D01*
D53*
X1619118Y1096082D02*
Y1175082D01*
X1541210D02*
X1569026D01*
X1491118Y1096082D02*
Y1175082D01*
X717598Y145866D02*
X725472D01*
X717598Y452953D02*
X725472D01*
X2072882Y680296D02*
X2066218Y673631D01*
Y660302D01*
X2072882Y653638D01*
X2079547D01*
X2086211Y660302D01*
Y673631D01*
X2092876Y680296D01*
X2099540D01*
X2106205Y673631D01*
Y660302D01*
X2099540Y653638D01*
X2066218Y693625D02*
X2106205D01*
Y713618D01*
X2099540Y720283D01*
X2072882D01*
X2066218Y713618D01*
Y693625D01*
Y753605D02*
Y740276D01*
X2072882Y733612D01*
X2099540D01*
X2106205Y740276D01*
Y753605D01*
X2099540Y760270D01*
X2072882D01*
X2066218Y753605D01*
X860331Y927260D02*
Y967247D01*
X880324D01*
X886989Y960582D01*
Y947253D01*
X880324Y940589D01*
X860331D01*
X873660D02*
X886989Y927260D01*
X900318Y967247D02*
X926976Y927260D01*
Y967247D02*
X900318Y927260D01*
X2179181Y680296D02*
X2172517Y673631D01*
Y660302D01*
X2179181Y653638D01*
X2205839D01*
X2212504Y660302D01*
Y673631D01*
X2205839Y680296D01*
X2179181Y720283D02*
X2172517Y713618D01*
Y700289D01*
X2179181Y693625D01*
X2185846D01*
X2192510Y700289D01*
Y713618D01*
X2199175Y720283D01*
X2205839D01*
X2212504Y713618D01*
Y700289D01*
X2205839Y693625D01*
X2172517Y733612D02*
X2212504D01*
Y753606D01*
X2205839Y760270D01*
X2199175D01*
X2192510Y753606D01*
Y733612D01*
Y753606D01*
X2185846Y760270D01*
X2179181D01*
X2172517Y753606D01*
Y733612D01*
X886989Y858220D02*
X880324Y864885D01*
X866995D01*
X860331Y858220D01*
Y831562D01*
X866995Y824898D01*
X880324D01*
X886989Y831562D01*
Y844891D01*
X873660D01*
X900318Y824898D02*
Y864885D01*
X926976Y824898D01*
Y864885D01*
X940305D02*
Y824898D01*
X960298D01*
X966963Y831562D01*
Y858220D01*
X960298Y864885D01*
X940305D01*
X2576060Y653638D02*
X2602718D01*
X2616047Y666967D01*
X2602718Y680296D01*
X2576060D01*
X2582725Y720283D02*
X2576060Y713618D01*
Y700289D01*
X2582725Y693625D01*
X2609383D01*
X2616047Y700289D01*
Y713618D01*
X2609383Y720283D01*
X2582725Y760270D02*
X2576060Y753606D01*
Y740277D01*
X2582725Y733612D01*
X2609383D01*
X2616047Y740277D01*
Y753606D01*
X2609383Y760270D01*
X2474457Y680296D02*
X2467792Y673631D01*
Y660302D01*
X2474457Y653638D01*
X2501115D01*
X2507779Y660302D01*
Y673631D01*
X2501115Y680296D01*
X2487786D01*
Y666967D01*
X2507779Y693625D02*
X2467792D01*
X2507779Y720283D01*
X2467792D01*
Y733612D02*
X2507779D01*
Y753606D01*
X2501115Y760270D01*
X2474457D01*
X2467792Y753606D01*
Y733612D01*
X2277606Y680296D02*
X2270942Y673631D01*
Y660302D01*
X2277606Y653638D01*
X2284271D01*
X2290936Y660302D01*
Y673631D01*
X2297600Y680296D01*
X2304265D01*
X2310929Y673631D01*
Y660302D01*
X2304265Y653638D01*
X2270942Y693625D02*
X2310929D01*
Y713618D01*
X2304265Y720283D01*
X2277606D01*
X2270942Y713618D01*
Y693625D01*
X2310929Y733612D02*
X2284271D01*
X2270942Y746941D01*
X2284271Y760270D01*
X2310929D01*
X2290936D01*
Y733612D01*
X2376032Y680296D02*
X2369367Y673631D01*
Y660302D01*
X2376032Y653638D01*
X2382696D01*
X2389361Y660302D01*
Y673631D01*
X2396025Y680296D01*
X2402690D01*
X2409354Y673631D01*
Y660302D01*
X2402690Y653638D01*
X2376032Y720283D02*
X2369367Y713618D01*
Y700289D01*
X2376032Y693625D01*
X2402690D01*
X2409354Y700289D01*
Y713618D01*
X2402690Y720283D01*
X2369367Y733612D02*
X2409354D01*
Y760270D01*
X860331Y1061735D02*
X886989D01*
X873660D01*
Y1021748D01*
X900318Y1061735D02*
X926976Y1021748D01*
Y1061735D02*
X900318Y1021748D01*
X1187150Y293616D02*
Y260293D01*
X1193814Y253629D01*
X1207143D01*
X1213808Y260293D01*
Y293616D01*
X1247130Y253629D02*
Y293616D01*
X1227137Y273622D01*
X1253795D01*
X1606750Y491213D02*
X1600085Y484548D01*
Y471219D01*
X1606750Y464555D01*
X1633408D01*
X1640072Y471219D01*
Y484548D01*
X1633408Y491213D01*
X1640072Y504542D02*
Y517871D01*
Y511206D01*
X1600085D01*
X1606750Y504542D01*
X1640072Y537864D02*
Y551193D01*
Y544529D01*
X1600085D01*
X1606750Y537864D01*
X1602813Y346753D02*
X1596148Y340088D01*
Y326759D01*
X1602813Y320095D01*
X1629471D01*
X1636135Y326759D01*
Y340088D01*
X1629471Y346753D01*
X1636135Y360082D02*
Y373411D01*
Y366747D01*
X1596148D01*
X1602813Y360082D01*
X1636135Y420063D02*
Y393405D01*
X1609477Y420063D01*
X1602813D01*
X1596148Y413398D01*
Y400069D01*
X1602813Y393405D01*
X886989Y1170003D02*
X860331D01*
Y1130016D01*
X886989D01*
X860331Y1150009D02*
X873660D01*
X900318Y1130016D02*
Y1170003D01*
X926976Y1130016D01*
Y1170003D01*
X860331Y1268428D02*
X873660D01*
X866995D01*
Y1228441D01*
X860331D01*
X873660D01*
X913647Y1268428D02*
X900318D01*
X893653Y1261764D01*
Y1235105D01*
X900318Y1228441D01*
X913647D01*
X920311Y1235105D01*
Y1261764D01*
X913647Y1268428D01*
X933640Y1261764D02*
X940305Y1268428D01*
X953634D01*
X960298Y1261764D01*
Y1235105D01*
X953634Y1228441D01*
X940305D01*
X933640Y1235105D01*
Y1261764D01*
X860331Y1364885D02*
Y1338227D01*
X873660Y1324898D01*
X886989Y1338227D01*
Y1364885D01*
X926976Y1358220D02*
X920311Y1364885D01*
X906982D01*
X900318Y1358220D01*
Y1331562D01*
X906982Y1324898D01*
X920311D01*
X926976Y1331562D01*
X966963Y1358220D02*
X960298Y1364885D01*
X946969D01*
X940305Y1358220D01*
Y1331562D01*
X946969Y1324898D01*
X960298D01*
X966963Y1331562D01*
X954866Y2118419D02*
Y2085096D01*
X961531Y2078432D01*
X974860D01*
X981524Y2085096D01*
Y2118419D01*
X1021512Y2078432D02*
X994854D01*
X1021512Y2105090D01*
Y2111754D01*
X1014847Y2118419D01*
X1001518D01*
X994854Y2111754D01*
X1854781Y1062233D02*
X1848117Y1055569D01*
Y1042240D01*
X1854781Y1035575D01*
X1881439D01*
X1888104Y1042240D01*
Y1055569D01*
X1881439Y1062233D01*
X1848117Y1075562D02*
Y1102220D01*
X1854781D01*
X1881439Y1075562D01*
X1888104D01*
X1766056Y1147780D02*
X1726069D01*
Y1167773D01*
X1732734Y1174438D01*
X1746063D01*
X1752727Y1167773D01*
Y1147780D01*
Y1161109D02*
X1766056Y1174438D01*
X1732734Y1187767D02*
X1726069Y1194431D01*
Y1207761D01*
X1732734Y1214425D01*
X1739399D01*
X1746063Y1207761D01*
Y1201096D01*
Y1207761D01*
X1752727Y1214425D01*
X1759392D01*
X1766056Y1207761D01*
Y1194431D01*
X1759392Y1187767D01*
X2509985Y1546936D02*
Y1586923D01*
X2529978D01*
X2536643Y1580258D01*
Y1566929D01*
X2529978Y1560265D01*
X2509985D01*
X2523314D02*
X2536643Y1546936D01*
X2569965D02*
Y1586923D01*
X2549972Y1566929D01*
X2576630D01*
X756807Y1427251D02*
Y1467238D01*
X776800D01*
X783465Y1460573D01*
Y1447244D01*
X776800Y1440580D01*
X756807D01*
X796794Y1427251D02*
X810123D01*
X803458D01*
Y1467238D01*
X796794Y1460573D01*
X961839Y1936557D02*
X955175Y1943222D01*
X941846D01*
X935181Y1936557D01*
Y1909899D01*
X941846Y1903235D01*
X955175D01*
X961839Y1909899D01*
X1001827Y1903235D02*
X975168D01*
X1001827Y1929893D01*
Y1936557D01*
X995162Y1943222D01*
X981833D01*
X975168Y1936557D01*
X967745Y1779077D02*
X961080Y1785742D01*
X947751D01*
X941087Y1779077D01*
Y1752419D01*
X947751Y1745755D01*
X961080D01*
X967745Y1752419D01*
X981074Y1779077D02*
X987739Y1785742D01*
X1001067D01*
X1007732Y1779077D01*
Y1772412D01*
X1001067Y1765748D01*
X994403D01*
X1001067D01*
X1007732Y1759083D01*
Y1752419D01*
X1001067Y1745755D01*
X987739D01*
X981074Y1752419D01*
X967745Y1863723D02*
X961080Y1870387D01*
X947751D01*
X941087Y1863723D01*
Y1837065D01*
X947751Y1830400D01*
X961080D01*
X967745Y1837065D01*
X1001067Y1830400D02*
Y1870387D01*
X981074Y1850394D01*
X1007732D01*
X965776Y1698369D02*
X959112Y1705033D01*
X945783D01*
X939118Y1698369D01*
Y1671710D01*
X945783Y1665046D01*
X959112D01*
X965776Y1671710D01*
X1005764Y1705033D02*
X979106D01*
Y1685039D01*
X992434Y1691704D01*
X999099D01*
X1005764Y1685039D01*
Y1671710D01*
X999099Y1665046D01*
X985770D01*
X979106Y1671710D01*
X1638696Y1159757D02*
Y1126435D01*
X1645361Y1119770D01*
X1658690D01*
X1665354Y1126435D01*
Y1159757D01*
X1678683Y1119770D02*
X1692012D01*
X1685348D01*
Y1159757D01*
X1678683Y1153093D01*
X1404444Y989849D02*
Y1029836D01*
X1424438D01*
X1431102Y1023172D01*
Y1009842D01*
X1424438Y1003178D01*
X1404444D01*
X1417773D02*
X1431102Y989849D01*
X1444431D02*
X1457761D01*
X1451096D01*
Y1029836D01*
X1444431Y1023172D01*
X777701Y1576463D02*
Y1616450D01*
X797695D01*
X804359Y1609786D01*
Y1596457D01*
X797695Y1589792D01*
X777701D01*
X791030D02*
X804359Y1576463D01*
X844346D02*
X817688D01*
X844346Y1603121D01*
Y1609786D01*
X837682Y1616450D01*
X824353D01*
X817688Y1609786D01*
X910658Y1475928D02*
X903994Y1482592D01*
X890665D01*
X884000Y1475928D01*
Y1449269D01*
X890665Y1442605D01*
X903994D01*
X910658Y1449269D01*
X950645Y1482592D02*
X937316Y1475928D01*
X923987Y1462598D01*
Y1449269D01*
X930652Y1442605D01*
X943981D01*
X950645Y1449269D01*
Y1455934D01*
X943981Y1462598D01*
X923987D01*
X1413386Y1133408D02*
X1406721Y1140072D01*
X1393392D01*
X1386728Y1133408D01*
Y1106750D01*
X1393392Y1100085D01*
X1406721D01*
X1413386Y1106750D01*
X1426715Y1100085D02*
X1440044D01*
X1433379D01*
Y1140072D01*
X1426715Y1133408D01*
X1773764Y760151D02*
Y726828D01*
X1780429Y720164D01*
X1793758D01*
X1800422Y726828D01*
Y760151D01*
X1813751Y753487D02*
X1820416Y760151D01*
X1833745D01*
X1840409Y753487D01*
Y746822D01*
X1833745Y740158D01*
X1827080D01*
X1833745D01*
X1840409Y733493D01*
Y726828D01*
X1833745Y720164D01*
X1820416D01*
X1813751Y726828D01*
X848567Y503628D02*
Y543616D01*
X868561D01*
X875225Y536951D01*
Y523622D01*
X868561Y516957D01*
X848567D01*
X888554Y536951D02*
X895219Y543616D01*
X908548D01*
X915212Y536951D01*
Y530287D01*
X908548Y523622D01*
X901883D01*
X908548D01*
X915212Y516957D01*
Y510293D01*
X908548Y503628D01*
X895219D01*
X888554Y510293D01*
X957902Y197159D02*
X944573D01*
X951238D01*
Y163836D01*
X944573Y157172D01*
X937909D01*
X931244Y163836D01*
X997889Y157172D02*
X971231D01*
X997889Y183830D01*
Y190494D01*
X991225Y197159D01*
X977896D01*
X971231Y190494D01*
X937150Y602671D02*
Y562684D01*
X957143D01*
X963808Y569348D01*
Y596006D01*
X957143Y602671D01*
X937150D01*
X977137Y596006D02*
X983802Y602671D01*
X997130D01*
X1003795Y596006D01*
Y589342D01*
X997130Y582677D01*
X990466D01*
X997130D01*
X1003795Y576013D01*
Y569348D01*
X997130Y562684D01*
X983802D01*
X977137Y569348D01*
X1053342Y274994D02*
Y235006D01*
X1073335D01*
X1080000Y241671D01*
Y268329D01*
X1073335Y274994D01*
X1053342D01*
X1093329Y235006D02*
X1106658D01*
X1099994D01*
Y274994D01*
X1093329Y268329D01*
X1204994Y628322D02*
X1165006D01*
Y608329D01*
X1171671Y601664D01*
X1198329D01*
X1204994Y608329D01*
Y628322D01*
X1165006Y561677D02*
Y588335D01*
X1191665Y561677D01*
X1198329D01*
X1204994Y568342D01*
Y581671D01*
X1198329Y588335D01*
X1398088Y622343D02*
X1391424Y615679D01*
Y602350D01*
X1398088Y595686D01*
X1424746D01*
X1431411Y602350D01*
Y615679D01*
X1424746Y622343D01*
X1431411Y635673D02*
Y649002D01*
Y642337D01*
X1391424D01*
X1398088Y635673D01*
Y668995D02*
X1391424Y675660D01*
Y688989D01*
X1398088Y695653D01*
X1424746D01*
X1431411Y688989D01*
Y675660D01*
X1424746Y668995D01*
X1398088D01*
X1268167Y824044D02*
X1261503Y817380D01*
Y804051D01*
X1268167Y797386D01*
X1294825D01*
X1301490Y804051D01*
Y817380D01*
X1294825Y824044D01*
Y837373D02*
X1301490Y844038D01*
Y857367D01*
X1294825Y864031D01*
X1268167D01*
X1261503Y857367D01*
Y844038D01*
X1268167Y837373D01*
X1274832D01*
X1281496Y844038D01*
Y864031D01*
X2606299Y2240466D02*
X2592970D01*
X2599635D01*
Y2207143D01*
X2592970Y2200479D01*
X2586306D01*
X2579641Y2207143D01*
X2619628Y2200479D02*
X2632957D01*
X2626293D01*
Y2240466D01*
X2619628Y2233802D01*
X1817380Y2068139D02*
X1810715Y2061474D01*
Y2048145D01*
X1817380Y2041481D01*
X1844038D01*
X1850702Y2048145D01*
Y2061474D01*
X1844038Y2068139D01*
X1817380Y2081468D02*
X1810715Y2088132D01*
Y2101461D01*
X1817380Y2108126D01*
X1824044D01*
X1830709Y2101461D01*
X1837373Y2108126D01*
X1844038D01*
X1850702Y2101461D01*
Y2088132D01*
X1844038Y2081468D01*
X1837373D01*
X1830709Y2088132D01*
X1824044Y2081468D01*
X1817380D01*
X1830709Y2088132D02*
Y2101461D01*
X1943055Y544967D02*
Y584954D01*
X1963049D01*
X1969713Y578290D01*
Y564961D01*
X1963049Y558296D01*
X1943055D01*
X2009700Y544967D02*
X1983043D01*
X2009700Y571625D01*
Y578290D01*
X2003036Y584954D01*
X1989707D01*
X1983043Y578290D01*
D54*
X892795Y145866D02*
Y159646D01*
X823898Y145866D02*
X892795D01*
Y439173D02*
Y452953D01*
X823898D02*
X892795D01*
D55*
X2044016Y620157D02*
X2634567D01*
X2044016Y147716D02*
X2634567D01*
X2044016D02*
Y620157D01*
X2634016Y147716D02*
Y620157D01*
D56*
X2219598Y291082D02*
Y251095D01*
X2239592D01*
X2246256Y257759D01*
Y264423D01*
X2239592Y271088D01*
X2219598D01*
X2239592D01*
X2246256Y277752D01*
Y284417D01*
X2239592Y291082D01*
X2219598D01*
X2259586Y251095D02*
Y291082D01*
X2272914Y277752D01*
X2286244Y291082D01*
Y251095D01*
X2326231Y291082D02*
X2299573D01*
Y251095D01*
X2326231D01*
X2299573Y271088D02*
X2312902D01*
X2366218Y251095D02*
X2339560D01*
X2366218Y277752D01*
Y284417D01*
X2359553Y291082D01*
X2346224D01*
X2339560Y284417D01*
X2379547D02*
X2386211Y291082D01*
X2399540D01*
X2406205Y284417D01*
Y277752D01*
X2399540Y271088D01*
X2406205Y264423D01*
Y257759D01*
X2399540Y251095D01*
X2386211D01*
X2379547Y257759D01*
Y264423D01*
X2386211Y271088D01*
X2379547Y277752D01*
Y284417D01*
X2386211Y271088D02*
X2399540D01*
X2419534Y284417D02*
X2426198Y291082D01*
X2439527D01*
X2446192Y284417D01*
Y257759D01*
X2439527Y251095D01*
X2426198D01*
X2419534Y257759D01*
Y284417D01*
%TF.MD5,2604c7e38bd6f8137f3dab6543754c94*%
M02*
