%TF.GenerationSoftware,Altium Limited,Altium Designer,21.4.1 (30)*%
G04 Layer_Color=8421504*
%FSLAX26Y26*%
%MOIN*%
%TF.SameCoordinates,1ED331C9-AAA6-4E36-89CA-E609260C48EE*%
%TF.FilePolarity,Positive*%
%TF.FileFunction,Paste,Top*%
%TF.Part,Single*%
G01*
G75*
%TA.AperFunction,SMDPad,CuDef*%
G04:AMPARAMS|DCode=10|XSize=51.575mil|YSize=127.559mil|CornerRadius=3.868mil|HoleSize=0mil|Usage=FLASHONLY|Rotation=270.000|XOffset=0mil|YOffset=0mil|HoleType=Round|Shape=RoundedRectangle|*
%AMROUNDEDRECTD10*
21,1,0.051575,0.119823,0,0,270.0*
21,1,0.043839,0.127559,0,0,270.0*
1,1,0.007736,-0.059911,-0.021919*
1,1,0.007736,-0.059911,0.021919*
1,1,0.007736,0.059911,0.021919*
1,1,0.007736,0.059911,-0.021919*
%
%ADD10ROUNDEDRECTD10*%
G04:AMPARAMS|DCode=11|XSize=51.575mil|YSize=36.614mil|CornerRadius=2.746mil|HoleSize=0mil|Usage=FLASHONLY|Rotation=270.000|XOffset=0mil|YOffset=0mil|HoleType=Round|Shape=RoundedRectangle|*
%AMROUNDEDRECTD11*
21,1,0.051575,0.031122,0,0,270.0*
21,1,0.046083,0.036614,0,0,270.0*
1,1,0.005492,-0.015561,-0.023041*
1,1,0.005492,-0.015561,0.023041*
1,1,0.005492,0.015561,0.023041*
1,1,0.005492,0.015561,-0.023041*
%
%ADD11ROUNDEDRECTD11*%
%ADD12R,0.037402X0.031496*%
%ADD13R,0.078740X0.035433*%
%ADD14R,0.035433X0.078740*%
%TA.AperFunction,BGAPad,CuDef*%
%ADD15R,0.052362X0.052362*%
%TA.AperFunction,SMDPad,CuDef*%
%ADD16R,0.035433X0.029528*%
%ADD17R,0.029528X0.035433*%
%ADD18R,0.031496X0.037402*%
%ADD19R,0.020787X0.039748*%
%TA.AperFunction,ConnectorPad*%
%ADD20R,0.074803X0.059055*%
%ADD21R,0.053150X0.015748*%
%TA.AperFunction,SMDPad,CuDef*%
%ADD22R,0.096457X0.062992*%
%ADD23R,0.062992X0.096457*%
%ADD24R,0.031496X0.059055*%
%ADD25R,0.059055X0.080709*%
D10*
X1370000Y270000D02*
D03*
D11*
X1279842Y533386D02*
D03*
X1370000D02*
D03*
X1460158D02*
D03*
D12*
X1550000Y538465D02*
D03*
Y471536D02*
D03*
Y331535D02*
D03*
Y398464D02*
D03*
X1811024Y1037401D02*
D03*
Y1104331D02*
D03*
X1897638Y1990157D02*
D03*
Y2057086D02*
D03*
D13*
X1080827Y1973110D02*
D03*
Y1923110D02*
D03*
Y1873110D02*
D03*
Y1823110D02*
D03*
Y1773110D02*
D03*
Y1723110D02*
D03*
Y1673110D02*
D03*
Y1623110D02*
D03*
Y1573110D02*
D03*
Y1523110D02*
D03*
Y1473110D02*
D03*
Y1423110D02*
D03*
Y1373110D02*
D03*
Y1323110D02*
D03*
X1750118D02*
D03*
Y1373110D02*
D03*
Y1423110D02*
D03*
Y1473110D02*
D03*
Y1523110D02*
D03*
Y1573110D02*
D03*
Y1623110D02*
D03*
Y1673110D02*
D03*
Y1723110D02*
D03*
Y1773110D02*
D03*
Y1823110D02*
D03*
Y1873110D02*
D03*
Y1923110D02*
D03*
Y1973110D02*
D03*
D14*
X1190473Y1283740D02*
D03*
X1240473D02*
D03*
X1290473D02*
D03*
X1340473D02*
D03*
X1390473D02*
D03*
X1440473D02*
D03*
X1490473D02*
D03*
X1540473D02*
D03*
X1590473D02*
D03*
X1640473D02*
D03*
D15*
X1303858Y1750079D02*
D03*
X1376102D02*
D03*
X1448347D02*
D03*
X1303858Y1677835D02*
D03*
X1376102D02*
D03*
X1448347D02*
D03*
X1303858Y1605591D02*
D03*
X1376102D02*
D03*
X1448347D02*
D03*
D16*
X1740158Y1038386D02*
D03*
Y1103346D02*
D03*
X1492126Y1036417D02*
D03*
Y971457D02*
D03*
X1185000Y457520D02*
D03*
Y522480D02*
D03*
D17*
X2396654Y1566929D02*
D03*
X2461614D02*
D03*
X952756Y1598425D02*
D03*
X887795D02*
D03*
D18*
X815630Y1925079D02*
D03*
X882559D02*
D03*
X815630Y1765079D02*
D03*
X882559D02*
D03*
X815630Y1845079D02*
D03*
X882559D02*
D03*
X815630Y1685079D02*
D03*
X882559D02*
D03*
X886811Y1523425D02*
D03*
X953740D02*
D03*
X1450788Y1177165D02*
D03*
X1383859D02*
D03*
X1348465Y620000D02*
D03*
X1281535D02*
D03*
X1348465Y750000D02*
D03*
X1281535D02*
D03*
D19*
X1517717Y1090551D02*
D03*
X1555118D02*
D03*
X1592520D02*
D03*
Y1180614D02*
D03*
X1517717D02*
D03*
D20*
X774685Y260039D02*
D03*
Y338779D02*
D03*
D21*
X880000Y248228D02*
D03*
Y273819D02*
D03*
Y299409D02*
D03*
Y325000D02*
D03*
Y350591D02*
D03*
D22*
X915354Y675000D02*
D03*
X1084646D02*
D03*
D23*
X1075000Y355354D02*
D03*
Y524646D02*
D03*
D24*
X2377953Y1889764D02*
D03*
X2334646D02*
D03*
X2291339D02*
D03*
X2248032D02*
D03*
X2204724D02*
D03*
X2161417D02*
D03*
X2118110D02*
D03*
X2074803D02*
D03*
D25*
X2522638Y1787401D02*
D03*
Y2114173D02*
D03*
X1981299D02*
D03*
Y1787401D02*
D03*
%TF.MD5,5afff5b5f50f96aa1e19d06017adfe57*%
M02*
