%TF.GenerationSoftware,Altium Limited,Altium Designer,21.4.1 (30)*%
G04 Layer_Physical_Order=1*
G04 Layer_Color=255*
%FSLAX26Y26*%
%MOIN*%
%TF.SameCoordinates,1ED331C9-AAA6-4E36-89CA-E609260C48EE*%
%TF.FilePolarity,Positive*%
%TF.FileFunction,Copper,L1,Top,Signal*%
%TF.Part,Single*%
G01*
G75*
%TA.AperFunction,SMDPad,CuDef*%
G04:AMPARAMS|DCode=10|XSize=51.575mil|YSize=127.559mil|CornerRadius=3.868mil|HoleSize=0mil|Usage=FLASHONLY|Rotation=270.000|XOffset=0mil|YOffset=0mil|HoleType=Round|Shape=RoundedRectangle|*
%AMROUNDEDRECTD10*
21,1,0.051575,0.119823,0,0,270.0*
21,1,0.043839,0.127559,0,0,270.0*
1,1,0.007736,-0.059911,-0.021919*
1,1,0.007736,-0.059911,0.021919*
1,1,0.007736,0.059911,0.021919*
1,1,0.007736,0.059911,-0.021919*
%
%ADD10ROUNDEDRECTD10*%
G04:AMPARAMS|DCode=11|XSize=51.575mil|YSize=36.614mil|CornerRadius=2.746mil|HoleSize=0mil|Usage=FLASHONLY|Rotation=270.000|XOffset=0mil|YOffset=0mil|HoleType=Round|Shape=RoundedRectangle|*
%AMROUNDEDRECTD11*
21,1,0.051575,0.031122,0,0,270.0*
21,1,0.046083,0.036614,0,0,270.0*
1,1,0.005492,-0.015561,-0.023041*
1,1,0.005492,-0.015561,0.023041*
1,1,0.005492,0.015561,0.023041*
1,1,0.005492,0.015561,-0.023041*
%
%ADD11ROUNDEDRECTD11*%
%ADD12R,0.037402X0.031496*%
%ADD13R,0.078740X0.035433*%
%ADD14R,0.035433X0.078740*%
%TA.AperFunction,BGAPad,CuDef*%
%ADD15R,0.052362X0.052362*%
%TA.AperFunction,SMDPad,CuDef*%
%ADD16R,0.035433X0.029528*%
%ADD17R,0.029528X0.035433*%
%ADD18R,0.031496X0.037402*%
%ADD19R,0.020787X0.039748*%
%TA.AperFunction,ConnectorPad*%
%ADD20R,0.074803X0.059055*%
%ADD21R,0.053150X0.015748*%
%TA.AperFunction,SMDPad,CuDef*%
%ADD22R,0.096457X0.062992*%
%ADD23R,0.062992X0.096457*%
%ADD24R,0.031496X0.059055*%
%ADD25R,0.059055X0.080709*%
%TA.AperFunction,Conductor*%
%ADD26C,0.011811*%
%ADD27C,0.029528*%
%ADD28C,0.019685*%
%ADD29C,0.015748*%
%TA.AperFunction,WasherPad*%
%ADD30C,0.045354*%
%TA.AperFunction,ComponentPad*%
%ADD31R,0.059055X0.059055*%
%ADD32C,0.059055*%
%ADD33C,0.070866*%
%ADD34R,0.070866X0.070866*%
%ADD35O,0.074803X0.047244*%
%ADD36C,0.057087*%
%ADD37R,0.059055X0.059055*%
%TA.AperFunction,ViaPad*%
%ADD38C,0.031496*%
%ADD39C,0.118110*%
%ADD40C,0.023622*%
G36*
X2070866Y2153543D02*
Y2074803D01*
X2062992Y2066929D01*
X1956693D01*
X1948819Y2074803D01*
Y2153543D01*
X1956693Y2161417D01*
X2062992D01*
X2070866Y2153543D01*
D02*
G37*
G36*
X2555118Y2153544D02*
Y2074803D01*
X2547244Y2066929D01*
X2440945D01*
X2433071Y2074803D01*
Y2153543D01*
X2440945Y2161417D01*
X2547244D01*
X2555118Y2153544D01*
D02*
G37*
G36*
X2062992Y1826772D02*
Y1748032D01*
X2055118Y1740158D01*
X1948819D01*
X1944882Y1744094D01*
Y1830709D01*
X1948819Y1834646D01*
X2055118D01*
X2062992Y1826772D01*
D02*
G37*
G36*
X2559055Y1826772D02*
Y1748031D01*
X2551181Y1740157D01*
X2444882D01*
X2437008Y1748031D01*
Y1826772D01*
X2444882Y1834646D01*
X2551181D01*
X2559055Y1826772D01*
D02*
G37*
G36*
X918937Y1945079D02*
X1125787D01*
X1129921Y1940945D01*
Y1905512D01*
X1125984Y1901575D01*
X930433D01*
X908937Y1880079D01*
Y1580079D01*
X903937Y1575079D01*
X863937D01*
X858937Y1580079D01*
Y1945079D01*
X863937Y1950079D01*
X913937D01*
X918937Y1945079D01*
D02*
G37*
G36*
X1476378Y1775591D02*
Y1578740D01*
X1472441Y1574803D01*
X1279528D01*
X1275591Y1578740D01*
Y1775591D01*
X1279528Y1779527D01*
X1472441D01*
X1476378Y1775591D01*
D02*
G37*
G36*
X1310000Y770000D02*
Y510000D01*
X1300000Y500000D01*
X1160000D01*
X1125000Y465000D01*
X1035000D01*
X1025000Y475000D01*
Y720000D01*
X1085000Y780000D01*
X1300000D01*
X1310000Y770000D01*
D02*
G37*
G36*
X793425Y460787D02*
X794449Y460709D01*
X795472Y460591D01*
X796496Y460394D01*
X797480Y460157D01*
X798504Y459882D01*
X799449Y459527D01*
X800394Y459134D01*
X801339Y458701D01*
X802244Y458189D01*
X803110Y457638D01*
X803976Y457087D01*
X804803Y456457D01*
X805591Y455787D01*
X806339Y455079D01*
X807047Y454331D01*
X807716Y453543D01*
X808346Y452716D01*
X808898Y451850D01*
X809449Y450984D01*
X809961Y450079D01*
X810394Y449134D01*
X810787Y448189D01*
X811142Y447244D01*
X811417Y446220D01*
X811654Y445236D01*
X811850Y444212D01*
X811968Y443189D01*
X812047Y442165D01*
X812087Y441142D01*
Y389961D01*
X737283D01*
Y441142D01*
X737323Y442165D01*
X737402Y443189D01*
X737520Y444212D01*
X737716Y445236D01*
X737953Y446220D01*
X738228Y447244D01*
X738583Y448189D01*
X738976Y449134D01*
X739409Y450079D01*
X739921Y450984D01*
X740472Y451850D01*
X741024Y452716D01*
X741654Y453543D01*
X742323Y454331D01*
X743032Y455079D01*
X743779Y455787D01*
X744567Y456457D01*
X745394Y457087D01*
X746260Y457638D01*
X747126Y458189D01*
X748032Y458701D01*
X748976Y459134D01*
X749921Y459527D01*
X750866Y459882D01*
X751890Y460157D01*
X752874Y460394D01*
X753898Y460591D01*
X754921Y460709D01*
X755945Y460787D01*
X756968Y460827D01*
X792402D01*
X793425Y460787D01*
D02*
G37*
G36*
X1401575Y560832D02*
X1401575Y523622D01*
X1430197Y495000D01*
X1575000D01*
X1580000Y490000D01*
Y380000D01*
X1575000Y375000D01*
X1470000D01*
X1345000Y500000D01*
Y560000D01*
X1350000Y565000D01*
X1397407D01*
X1401575Y560832D01*
D02*
G37*
G36*
X812087Y157677D02*
X812047Y156654D01*
X811968Y155630D01*
X811850Y154606D01*
X811654Y153583D01*
X811417Y152598D01*
X811142Y151575D01*
X810787Y150630D01*
X810394Y149685D01*
X809961Y148740D01*
X809449Y147835D01*
X808898Y146969D01*
X808346Y146102D01*
X807716Y145275D01*
X807047Y144488D01*
X806339Y143740D01*
X805591Y143031D01*
X804803Y142362D01*
X803976Y141732D01*
X803110Y141181D01*
X802244Y140630D01*
X801339Y140118D01*
X800394Y139685D01*
X799449Y139291D01*
X798504Y138937D01*
X797480Y138661D01*
X796496Y138425D01*
X795472Y138228D01*
X794449Y138110D01*
X793425Y138031D01*
X792402Y137992D01*
X756968D01*
X755945Y138031D01*
X754921Y138110D01*
X753898Y138228D01*
X752874Y138425D01*
X751890Y138661D01*
X750866Y138937D01*
X749921Y139291D01*
X748976Y139685D01*
X748032Y140118D01*
X747126Y140630D01*
X746260Y141181D01*
X745394Y141732D01*
X744567Y142362D01*
X743779Y143031D01*
X743032Y143740D01*
X742323Y144488D01*
X741654Y145275D01*
X741024Y146102D01*
X740472Y146969D01*
X739921Y147835D01*
X739409Y148740D01*
X738976Y149685D01*
X738583Y150630D01*
X738228Y151575D01*
X737953Y152598D01*
X737716Y153583D01*
X737520Y154606D01*
X737402Y155630D01*
X737323Y156654D01*
X737283Y157677D01*
Y208858D01*
X812087D01*
Y157677D01*
D02*
G37*
D10*
X1370000Y270000D02*
D03*
D11*
X1279842Y533386D02*
D03*
X1370000D02*
D03*
X1460158D02*
D03*
D12*
X1550000Y538465D02*
D03*
Y471536D02*
D03*
Y331535D02*
D03*
Y398464D02*
D03*
X1811024Y1037401D02*
D03*
Y1104331D02*
D03*
X1897638Y1990157D02*
D03*
Y2057086D02*
D03*
D13*
X1080827Y1973110D02*
D03*
Y1923110D02*
D03*
Y1873110D02*
D03*
Y1823110D02*
D03*
Y1773110D02*
D03*
Y1723110D02*
D03*
Y1673110D02*
D03*
Y1623110D02*
D03*
Y1573110D02*
D03*
Y1523110D02*
D03*
Y1473110D02*
D03*
Y1423110D02*
D03*
Y1373110D02*
D03*
Y1323110D02*
D03*
X1750118D02*
D03*
Y1373110D02*
D03*
Y1423110D02*
D03*
Y1473110D02*
D03*
Y1523110D02*
D03*
Y1573110D02*
D03*
Y1623110D02*
D03*
Y1673110D02*
D03*
Y1723110D02*
D03*
Y1773110D02*
D03*
Y1823110D02*
D03*
Y1873110D02*
D03*
Y1923110D02*
D03*
Y1973110D02*
D03*
D14*
X1190473Y1283740D02*
D03*
X1240473D02*
D03*
X1290473D02*
D03*
X1340473D02*
D03*
X1390473D02*
D03*
X1440473D02*
D03*
X1490473D02*
D03*
X1540473D02*
D03*
X1590473D02*
D03*
X1640473D02*
D03*
D15*
X1303858Y1750079D02*
D03*
X1376102D02*
D03*
X1448347D02*
D03*
X1303858Y1677835D02*
D03*
X1376102D02*
D03*
X1448347D02*
D03*
X1303858Y1605591D02*
D03*
X1376102D02*
D03*
X1448347D02*
D03*
D16*
X1740158Y1038386D02*
D03*
Y1103346D02*
D03*
X1492126Y1036417D02*
D03*
Y971457D02*
D03*
X1185000Y457520D02*
D03*
Y522480D02*
D03*
D17*
X2396654Y1566929D02*
D03*
X2461614D02*
D03*
X952756Y1598425D02*
D03*
X887795D02*
D03*
D18*
X815630Y1925079D02*
D03*
X882559D02*
D03*
X815630Y1765079D02*
D03*
X882559D02*
D03*
X815630Y1845079D02*
D03*
X882559D02*
D03*
X815630Y1685079D02*
D03*
X882559D02*
D03*
X886811Y1523425D02*
D03*
X953740D02*
D03*
X1450788Y1177165D02*
D03*
X1383859D02*
D03*
X1348465Y620000D02*
D03*
X1281535D02*
D03*
X1348465Y750000D02*
D03*
X1281535D02*
D03*
D19*
X1517717Y1090551D02*
D03*
X1555118D02*
D03*
X1592520D02*
D03*
Y1180614D02*
D03*
X1517717D02*
D03*
D20*
X774685Y260039D02*
D03*
Y338779D02*
D03*
D21*
X880000Y248228D02*
D03*
Y273819D02*
D03*
Y299409D02*
D03*
Y325000D02*
D03*
Y350591D02*
D03*
D22*
X915354Y675000D02*
D03*
X1084646D02*
D03*
D23*
X1075000Y355354D02*
D03*
Y524646D02*
D03*
D24*
X2377953Y1889764D02*
D03*
X2334646D02*
D03*
X2291339D02*
D03*
X2248032D02*
D03*
X2204724D02*
D03*
X2161417D02*
D03*
X2118110D02*
D03*
X2074803D02*
D03*
D25*
X2522638Y1787401D02*
D03*
Y2114173D02*
D03*
X1981299D02*
D03*
Y1787401D02*
D03*
D26*
X885827Y1122047D02*
X1039370Y968504D01*
X885827Y1122047D02*
Y1172441D01*
X1039370Y968504D02*
X1354331D01*
X783465Y1147244D02*
X860630D01*
X860630D02*
X885827Y1172441D01*
X953248Y1461122D02*
Y1597933D01*
X885827Y1393701D02*
X953248Y1461122D01*
X885827Y1172441D02*
Y1291339D01*
X1492126Y971457D02*
X1493602Y969980D01*
X1549705D01*
X1551181Y968504D01*
X1497047Y1041339D02*
Y1060401D01*
X1492126Y1036417D02*
X1497047Y1041339D01*
X1517717Y1081071D02*
Y1090551D01*
X1497047Y1060401D02*
X1517717Y1081071D01*
X1673228Y1771653D02*
X1748661D01*
X1750118Y1773110D01*
X1673228Y1822835D02*
X1749843D01*
X1750118Y1823110D01*
X1647929Y1356008D02*
X1659740D01*
X1645669Y1358268D02*
X1647929Y1356008D01*
X1681102Y1334646D02*
X1738583D01*
X1659740Y1356008D02*
X1681102Y1334646D01*
X1738583D02*
X1750118Y1323110D01*
X1673918Y1723665D02*
X1749564D01*
X1750118Y1723110D01*
X1749213Y1874016D02*
X1750118Y1873110D01*
X1673228Y1874016D02*
X1749213D01*
X2456693Y1106299D02*
X2461614Y1111220D01*
Y1566929D01*
X1750118Y1773110D02*
X1751575Y1771653D01*
X1750118Y1823110D02*
X1750394Y1822835D01*
X1811024Y1104331D02*
X1812992D01*
X1807087Y1373110D02*
X1822835Y1357362D01*
X1812992Y1104331D02*
X1822835Y1114173D01*
Y1357362D01*
X1810532Y1103839D02*
X1811024Y1104331D01*
X1740158Y1103346D02*
X1740650Y1103839D01*
X1810532D01*
X1807087Y1373110D02*
X2267362D01*
X1750118D02*
X1807087D01*
X2267362D02*
X2401929Y1238543D01*
X2338583Y1175197D02*
X2401929Y1238543D01*
X2338583Y1037401D02*
Y1175197D01*
Y1037401D02*
X2401929Y974055D01*
X1993189Y1623110D02*
X2118110Y1748032D01*
Y1889764D01*
X1750118Y1623110D02*
X1993189D01*
X2334646Y1653543D02*
Y1889764D01*
X2204213Y1523110D02*
X2334646Y1653543D01*
X1750118Y1523110D02*
X2204213D01*
X1750118Y1573110D02*
X2080984D01*
X2204724Y1696850D01*
Y1889764D01*
X1867992Y1923110D02*
X1889764Y1944882D01*
X1750118Y1923110D02*
X1867992D01*
X1889764Y1944882D02*
X2284420D01*
X2291339Y1937963D01*
Y1889764D02*
Y1937963D01*
X952756Y1598425D02*
X953248Y1597933D01*
X1592520Y1180614D02*
Y1283740D01*
X1010906Y1873110D02*
X1080827D01*
X952756Y1814960D02*
X1010906Y1873110D01*
X952756Y1598425D02*
Y1814960D01*
D27*
X2248032Y1818898D02*
Y1889764D01*
X2248032Y1889764D01*
X1550000Y396496D02*
Y398464D01*
Y396496D02*
X2536260D01*
X1460158Y533386D02*
Y540866D01*
X1494623Y575332D01*
Y589623D01*
X1495000Y590000D01*
X1897638Y2057086D02*
Y2110236D01*
X811024Y1598425D02*
X887795D01*
X783465Y1570866D02*
X811024Y1598425D01*
X783465Y1347244D02*
Y1570866D01*
X1840100Y1989173D02*
X1896653D01*
X1839115Y1988189D02*
X1840100Y1989173D01*
X1896653D02*
X1897638Y1990157D01*
X1838583Y1988189D02*
X1839115D01*
X1409972Y1071389D02*
X1450788Y1112205D01*
X1409972Y491386D02*
Y1071389D01*
X1450788Y1112205D02*
Y1177165D01*
Y1179630D01*
X1451772Y1180614D01*
X900787Y1347244D02*
X1181102Y1066929D01*
X1405512D01*
X783465Y1347244D02*
X900787D01*
X1348465Y750000D02*
Y808483D01*
X1346457Y810491D02*
Y811024D01*
Y810491D02*
X1348465Y808483D01*
Y620000D02*
Y674704D01*
X1350394Y676633D02*
Y677165D01*
X1348465Y674704D02*
X1350394Y676633D01*
X2137441Y1238543D02*
X2137795Y1238189D01*
Y1163928D02*
Y1238189D01*
X2082677Y1108810D02*
X2137795Y1163928D01*
X2082677Y1106299D02*
Y1108810D01*
Y1095113D02*
X2129531Y1048259D01*
X2082677Y1095113D02*
Y1106299D01*
X2129531Y981965D02*
X2137441Y974055D01*
X2129531Y981965D02*
Y1048259D01*
X2588347Y448583D02*
Y568582D01*
X2536260Y396496D02*
X2588347Y448583D01*
X1331241Y1181102D02*
X1335178Y1177165D01*
X1330709Y1181102D02*
X1331241D01*
X1335178Y1177165D02*
X1383859D01*
X1192913Y1357735D02*
Y1358268D01*
X1190473Y1355294D02*
X1192913Y1357735D01*
X1190473Y1283740D02*
Y1355294D01*
X1080827Y1973110D02*
X1156278D01*
X1156948Y1972441D01*
X1157480D01*
X759843Y1921260D02*
X760219Y1921636D01*
X1673228Y1972441D02*
X1673761D01*
X1674430Y1973110D01*
X1750118D01*
X814646Y1921636D02*
X815630Y1922621D01*
Y1925079D01*
X760219Y1921636D02*
X814646D01*
X759843Y1846457D02*
X814646D01*
X815630Y1764764D02*
Y1765079D01*
X759843Y1763780D02*
X814646D01*
X815630Y1764764D01*
X814646Y1846457D02*
X815630Y1845472D01*
Y1845079D02*
Y1845472D01*
X759862Y1685059D02*
X815610D01*
X815630Y1685079D01*
X759843Y1685039D02*
X759862Y1685059D01*
X886713Y1523524D02*
X886811Y1523425D01*
X838583Y1523622D02*
X838681Y1523524D01*
X886713D01*
X1550000Y275000D02*
Y331535D01*
Y538465D02*
Y600000D01*
X780000Y675000D02*
X915354D01*
X1185000Y400000D02*
Y457520D01*
X1070236Y350591D02*
X1075000Y355354D01*
X939409Y350591D02*
X1070236D01*
X2160845Y1825113D02*
X2161131Y1825399D01*
Y1889477D01*
X2161417Y1889764D01*
D28*
X2342520Y1566929D02*
X2396654D01*
X1811024Y976378D02*
Y1037401D01*
X1740158Y976378D02*
Y1038386D01*
X1451772Y1180614D02*
X1517717D01*
X1592520Y1048472D02*
X1602362Y1038629D01*
Y1035433D02*
Y1038629D01*
X1551181Y1035433D02*
Y1038629D01*
X1555118Y1042566D01*
X1592520Y1048472D02*
Y1090551D01*
X1555118Y1042566D02*
Y1090551D01*
D29*
X880000Y248228D02*
X943228D01*
X945000Y250000D01*
X880000Y350591D02*
X939409D01*
D30*
X2580709Y307087D02*
D03*
X807087Y2066929D02*
D03*
D31*
X783465Y847244D02*
D03*
X780000Y675000D02*
D03*
D32*
X783465Y947244D02*
D03*
Y1047244D02*
D03*
Y1147244D02*
D03*
Y1247244D02*
D03*
Y1347244D02*
D03*
X780000Y575000D02*
D03*
X2488347Y568582D02*
D03*
X2388347D02*
D03*
X2288347D02*
D03*
X2188347D02*
D03*
X2088347D02*
D03*
D33*
X2401929Y1238543D02*
D03*
X2456693Y1106299D02*
D03*
X2401929Y974055D02*
D03*
X2137441D02*
D03*
X2082677Y1106299D02*
D03*
D34*
X2137441Y1238543D02*
D03*
D35*
X774685Y161614D02*
D03*
Y437205D02*
D03*
D36*
X880984Y200984D02*
D03*
Y397835D02*
D03*
D37*
X2588347Y568582D02*
D03*
D38*
X2629389Y1795276D02*
D03*
X2627420Y1966535D02*
D03*
Y2143701D02*
D03*
X2209512Y1614561D02*
D03*
X1893168Y1870079D02*
D03*
X1836082Y2167323D02*
D03*
X890994Y2093458D02*
D03*
X795236Y1993537D02*
D03*
X1013247Y2171260D02*
D03*
X999467Y2238189D02*
D03*
X932538Y2190945D02*
D03*
X920727Y2005906D02*
D03*
X1280272Y912096D02*
D03*
X1021121Y814961D02*
D03*
X1133326Y842520D02*
D03*
X1180570Y909449D02*
D03*
X1064428Y907480D02*
D03*
X2241593Y338583D02*
D03*
X2242963Y204206D02*
D03*
X2497348Y331868D02*
D03*
X2547099Y200451D02*
D03*
X2393168Y198819D02*
D03*
X2341526Y329990D02*
D03*
X2121515Y208661D02*
D03*
X2486084Y470794D02*
D03*
X2413805Y468916D02*
D03*
X2271121Y468504D02*
D03*
X2125627Y481119D02*
D03*
X2131890Y328740D02*
D03*
X1439445Y194819D02*
D03*
X1156948Y212598D02*
D03*
X1078207Y157480D02*
D03*
X1225845Y151575D02*
D03*
X1359656Y145069D02*
D03*
X1520172Y157272D02*
D03*
X1976375Y174168D02*
D03*
X1868426Y205145D02*
D03*
X1640324Y237060D02*
D03*
X1721908Y192913D02*
D03*
X1825246Y289627D02*
D03*
X1932256Y304646D02*
D03*
X1736070Y314972D02*
D03*
X1912853Y618110D02*
D03*
X1776434Y898836D02*
D03*
X1668759Y826772D02*
D03*
X1635631Y893204D02*
D03*
X1512662Y830312D02*
D03*
X1651042Y616142D02*
D03*
X1517716Y681102D02*
D03*
X1922696Y460630D02*
D03*
X2649074Y1057087D02*
D03*
X2653011Y1192913D02*
D03*
X2647538Y1375690D02*
D03*
X2521121Y996063D02*
D03*
X2519152Y1348425D02*
D03*
X2521121Y1250000D02*
D03*
X2530202Y1428256D02*
D03*
X2328207Y1468504D02*
D03*
X2391200Y1387795D02*
D03*
X2019152Y990158D02*
D03*
X1952908Y1048087D02*
D03*
X1944349Y1161417D02*
D03*
X2044743Y1232284D02*
D03*
X1962066Y1297244D02*
D03*
X2048680Y1429134D02*
D03*
X1954192Y1437008D02*
D03*
X2471908Y1907480D02*
D03*
X2639231Y1627953D02*
D03*
X2633326Y1722441D02*
D03*
X2624071Y1889153D02*
D03*
X2627953Y2059055D02*
D03*
X2351829Y2110236D02*
D03*
X2408916Y1984252D02*
D03*
X2294743Y2047244D02*
D03*
X2186475Y2096457D02*
D03*
X1906948Y2230315D02*
D03*
X1826772Y2238189D02*
D03*
X1660885Y1629921D02*
D03*
X1426633Y1383858D02*
D03*
X1590018Y1940945D02*
D03*
X1505373Y1846457D02*
D03*
X1452223Y1938976D02*
D03*
X1351209Y1862869D02*
D03*
X1280963Y1937008D02*
D03*
X1198286Y1830709D02*
D03*
X1210097Y1675197D02*
D03*
X1513247Y1419291D02*
D03*
X1420727Y1503937D02*
D03*
X1328207Y1431102D02*
D03*
X1214034Y1498032D02*
D03*
X2248032Y1818898D02*
D03*
X1897638Y2110236D02*
D03*
X2039370Y1763780D02*
D03*
Y1807087D02*
D03*
X2460630Y1767716D02*
D03*
Y1811024D02*
D03*
X2456693Y2094488D02*
D03*
Y2137795D02*
D03*
X2047244Y2086614D02*
D03*
Y2133858D02*
D03*
X2160845Y1825113D02*
D03*
X1838583Y1988189D02*
D03*
X1196850Y688976D02*
D03*
X1346457Y811024D02*
D03*
X1350394Y677165D02*
D03*
X2342520Y1566929D02*
D03*
X1811024Y976378D02*
D03*
X1740158D02*
D03*
X838583Y1523622D02*
D03*
X1551181Y1035433D02*
D03*
X1602362D02*
D03*
X759843Y1763780D02*
D03*
Y1685039D02*
D03*
Y1846457D02*
D03*
X1157480Y1972441D02*
D03*
X1192913Y1358268D02*
D03*
X1330709Y1181102D02*
D03*
X759843Y1921260D02*
D03*
X1673228Y1972441D02*
D03*
X945000Y250000D02*
D03*
X1550000Y600000D02*
D03*
X1185000Y400000D02*
D03*
X1550000Y275000D02*
D03*
X1495000Y590000D02*
D03*
D39*
X809055Y2183071D02*
D03*
X1799213Y561024D02*
D03*
D40*
X885827Y1393701D02*
D03*
Y1291339D02*
D03*
X1354331Y968504D02*
D03*
X1551181D02*
D03*
X1673228Y1771653D02*
D03*
Y1822835D02*
D03*
X1645669Y1358268D02*
D03*
X1673918Y1723665D02*
D03*
X1673228Y1874016D02*
D03*
X1303150Y1641732D02*
D03*
X1338583Y1751968D02*
D03*
X1377953Y1641732D02*
D03*
X1413386Y1606299D02*
D03*
X1338583D02*
D03*
X1413386Y1677165D02*
D03*
X1338583D02*
D03*
X1303150Y1712598D02*
D03*
X1377953D02*
D03*
X1409449Y1751968D02*
D03*
X1448416Y1714457D02*
D03*
X1448819Y1641732D02*
D03*
%TF.MD5,9897bb8a56dc10abdb8968045d0242cd*%
M02*
